<svg width="21" height="20" viewBox="0 0 21 20" fill="none" xmlns="http://www.w3.org/2000/svg">
<g id="Add User">
<path id="Stroke 1" fill-rule="evenodd" clip-rule="evenodd" d="M8.37663 13.2065C4.53263 13.2065 1.24963 13.7875 1.24963 16.1155C1.24963 18.4435 4.51263 19.0455 8.37663 19.0455C12.2216 19.0455 15.5036 18.4635 15.5036 16.1365C15.5036 13.8095 12.2416 13.2065 8.37663 13.2065Z" stroke="url(#paint0_linear_1319_281)" stroke-width="1.5" stroke-linecap="round" stroke-linejoin="round"/>
<path id="Stroke 3" fill-rule="evenodd" clip-rule="evenodd" d="M8.3766 9.886C10.8996 9.886 12.9446 7.841 12.9446 5.318C12.9446 2.795 10.8996 0.75 8.3766 0.75C5.8546 0.75 3.8096 2.795 3.8096 5.318C3.8006 7.832 5.8306 9.877 8.3456 9.886H8.3766Z" stroke="url(#paint1_linear_1319_281)" stroke-width="1.5" stroke-linecap="round" stroke-linejoin="round"/>
<path id="Stroke 5" d="M17.7037 6.66943V10.6794" stroke="url(#paint2_linear_1319_281)" stroke-width="1.5" stroke-linecap="round" stroke-linejoin="round"/>
<path id="Stroke 7" d="M19.7497 8.67432H15.6597" stroke="url(#paint3_linear_1319_281)" stroke-width="1.5" stroke-linecap="round" stroke-linejoin="round"/>
</g>
<defs>
<linearGradient id="paint0_linear_1319_281" x1="1.24963" y1="19.0455" x2="15.5036" y2="19.0455" gradientUnits="userSpaceOnUse">
<stop stop-color="#0873D6"/>
<stop offset="1" stop-color="#0835D6"/>
</linearGradient>
<linearGradient id="paint1_linear_1319_281" x1="3.80957" y1="9.886" x2="12.9446" y2="9.886" gradientUnits="userSpaceOnUse">
<stop stop-color="#0873D6"/>
<stop offset="1" stop-color="#0835D6"/>
</linearGradient>
<linearGradient id="paint2_linear_1319_281" x1="17.2037" y1="10.6794" x2="18.2037" y2="10.6794" gradientUnits="userSpaceOnUse">
<stop stop-color="#0873D6"/>
<stop offset="1" stop-color="#0835D6"/>
</linearGradient>
<linearGradient id="paint3_linear_1319_281" x1="15.6597" y1="9.17432" x2="19.7497" y2="9.17432" gradientUnits="userSpaceOnUse">
<stop stop-color="#0873D6"/>
<stop offset="1" stop-color="#0835D6"/>
</linearGradient>
</defs>
</svg>
