<svg width="80" height="80" viewBox="0 0 80 80" fill="none" xmlns="http://www.w3.org/2000/svg">
<g id="error 1" clip-path="url(#clip0_1046_753)">
<path id="Vector" d="M79.9866 40C79.9866 17.9083 62.0813 0 39.9933 0C17.9059 0 0 17.9083 0 40C0 62.0917 17.9059 80 39.9933 80C62.0813 80 79.9866 62.0917 79.9866 40Z" fill="#FF6969"/>
<path id="Vector_2" d="M64.6652 8.5166C69.9984 15.3135 73.1796 23.881 73.1796 33.1919C73.1796 55.283 55.2737 73.1919 33.1863 73.1919C23.8766 73.1919 15.3109 70.0101 8.51465 64.6757C15.8364 74.0061 27.2152 80.0004 39.9935 80.0004C62.0815 80.0004 79.9868 62.092 79.9868 40.0004C79.9868 27.2196 73.9938 15.839 64.6652 8.5166Z" fill="#FF4444"/>
<path id="Vector_3" d="M42.5334 46.7189H37.4541C36.4482 46.7189 35.6328 45.9034 35.6328 44.897V21.8971C35.6328 20.8906 36.4482 20.0752 37.4541 20.0752H42.5334C43.5393 20.0752 44.3553 20.8906 44.3553 21.8971V44.897C44.3553 45.9034 43.5399 46.7189 42.5334 46.7189Z" fill="white"/>
<path id="Vector_4" d="M42.5338 20.0752H39.2422C40.248 20.0752 41.0635 20.8906 41.0635 21.8971V44.897C41.0635 45.9034 40.248 46.7189 39.2422 46.7189H42.5338C43.5397 46.7189 44.3551 45.9028 44.3551 44.897V21.8971C44.3551 20.8906 43.5397 20.0752 42.5338 20.0752Z" fill="white"/>
<path id="Vector_5" d="M39.9938 61.2195C37.5853 61.2195 35.6328 59.2664 35.6328 56.8579V56.8567C35.6328 54.4482 37.5853 52.4951 39.9938 52.4951C42.4022 52.4951 44.3553 54.4482 44.3553 56.8567V56.8579C44.3553 59.2664 42.4022 61.2195 39.9938 61.2195Z" fill="white"/>
<path id="Vector_6" d="M39.9929 52.4951C39.642 52.4951 39.3008 52.5378 38.9736 52.616C40.8907 53.0756 42.3159 54.7992 42.3159 56.8573C42.3159 58.9148 40.8907 60.639 38.9736 61.098C39.3008 61.1768 39.642 61.2195 39.9929 61.2195C42.402 61.2195 44.3545 59.2664 44.3545 56.8573C44.3545 54.4482 42.4014 52.4951 39.9929 52.4951Z" fill="white"/>
</g>
<defs>
<clipPath id="clip0_1046_753">
<rect width="80" height="80" fill="white"/>
</clipPath>
</defs>
</svg>
