<svg width="24" height="24" viewBox="0 0 24 24" fill="none" xmlns="http://www.w3.org/2000/svg">
<g id="Iconsax/Linear/global">
<path id="Vector" d="M12 22C17.523 22 22 17.523 22 12C22 6.477 17.523 2 12 2C6.477 2 2 6.477 2 12C2 17.523 6.477 22 12 22Z" stroke="#565E64" stroke-width="1.5" stroke-linecap="round" stroke-linejoin="round"/>
<path id="Vector_2" d="M8.00154 3H9.00154C7.05157 8.84157 7.05157 15.1584 9.00154 21H8.00154M15.0015 3C16.9515 8.84157 16.9515 15.1584 15.0015 21" stroke="#565E64" stroke-width="1.5" stroke-linecap="round" stroke-linejoin="round"/>
<path id="Vector_3" d="M3 15.9996V14.9996C8.84157 16.9496 15.1584 16.9496 21 14.9996V15.9996M3 8.99959C8.84157 7.04962 15.1584 7.04962 21 8.99959" stroke="#565E64" stroke-width="1.5" stroke-linecap="round" stroke-linejoin="round"/>
</g>
</svg>
