<svg width="15" height="18" viewBox="0 0 15 18" fill="none" xmlns="http://www.w3.org/2000/svg">
<g id="Lock">
<path id="Fill 1" fill-rule="evenodd" clip-rule="evenodd" d="M11.1018 7.50013C10.7568 7.50013 10.4768 7.22013 10.4768 6.87513V5.08596C10.4768 3.3393 9.05598 1.91846 7.30931 1.91846H7.29598C6.45181 1.91846 5.66098 2.24346 5.06348 2.83596C4.46181 3.43096 4.12931 4.22513 4.12598 5.0718V6.87513C4.12598 7.22013 3.84598 7.50013 3.50098 7.50013C3.15598 7.50013 2.87598 7.22013 2.87598 6.87513V5.08596C2.88098 3.88596 3.34514 2.77846 4.18264 1.94846C5.02098 1.11763 6.12764 0.636798 7.31181 0.668464C9.74514 0.668464 11.7268 2.65013 11.7268 5.08596V6.87513C11.7268 7.22013 11.4468 7.50013 11.1018 7.50013Z" fill="url(#paint0_linear_2281_482)"/>
<path id="Fill 3" fill-rule="evenodd" clip-rule="evenodd" d="M4.11801 7.44043C2.71967 7.44043 1.58301 8.5771 1.58301 9.97543V13.5496C1.58301 14.9479 2.71967 16.0846 4.11801 16.0846H10.4855C11.883 16.0846 13.0205 14.9479 13.0205 13.5496V9.97543C13.0205 8.5771 11.883 7.44043 10.4855 7.44043H4.11801ZM10.4855 17.3346H4.11801C2.03051 17.3346 0.333008 15.6371 0.333008 13.5496V9.97543C0.333008 7.88793 2.03051 6.19043 4.11801 6.19043H10.4855C12.573 6.19043 14.2705 7.88793 14.2705 9.97543V13.5496C14.2705 15.6371 12.573 17.3346 10.4855 17.3346Z" fill="url(#paint1_linear_2281_482)"/>
<path id="Fill 5" fill-rule="evenodd" clip-rule="evenodd" d="M7.30176 13.3127C6.95676 13.3127 6.67676 13.0327 6.67676 12.6877V10.8369C6.67676 10.4919 6.95676 10.2119 7.30176 10.2119C7.64676 10.2119 7.92676 10.4919 7.92676 10.8369V12.6877C7.92676 13.0327 7.64676 13.3127 7.30176 13.3127Z" fill="url(#paint2_linear_2281_482)"/>
</g>
<defs>
<linearGradient id="paint0_linear_2281_482" x1="2.87598" y1="7.50013" x2="11.7268" y2="7.50013" gradientUnits="userSpaceOnUse">
<stop stop-color="#0873D6"/>
<stop offset="1" stop-color="#0835D6"/>
</linearGradient>
<linearGradient id="paint1_linear_2281_482" x1="0.333008" y1="17.3346" x2="14.2705" y2="17.3346" gradientUnits="userSpaceOnUse">
<stop stop-color="#0873D6"/>
<stop offset="1" stop-color="#0835D6"/>
</linearGradient>
<linearGradient id="paint2_linear_2281_482" x1="6.67676" y1="13.3127" x2="7.92676" y2="13.3127" gradientUnits="userSpaceOnUse">
<stop stop-color="#0873D6"/>
<stop offset="1" stop-color="#0835D6"/>
</linearGradient>
</defs>
</svg>
