<svg width="107" height="41" viewBox="0 0 107 41" fill="none" xmlns="http://www.w3.org/2000/svg">
<g id="Logo-white">
<path id="Vector" d="M73.9694 12.2717L62.5184 39.5285C62.4575 39.6734 62.3552 39.7972 62.2242 39.8842C62.0932 39.9713 61.9395 40.0177 61.7823 40.0176H56.026C55.8707 40.0176 55.7189 39.9724 55.589 39.8874C55.4591 39.8025 55.3568 39.6815 55.2946 39.5393L43.3595 12.2825C43.3062 12.161 43.284 12.0281 43.295 11.8959C43.3059 11.7636 43.3497 11.6362 43.4223 11.5252C43.4949 11.4141 43.5941 11.3229 43.7108 11.2598C43.8276 11.1967 43.9582 11.1637 44.0909 11.1638H50.1255C50.2843 11.1638 50.4395 11.2112 50.5712 11.2998C50.7029 11.3884 50.8052 11.5144 50.8649 11.6614L58.7309 31.0175L66.8306 11.6539C66.8914 11.5087 66.9937 11.3847 67.1248 11.2975C67.2559 11.2103 67.4098 11.1638 67.5672 11.1638H73.2334C73.3651 11.1637 73.4947 11.1962 73.6108 11.2584C73.7269 11.3206 73.8258 11.4105 73.8987 11.5202C73.9716 11.6299 74.0162 11.756 74.0285 11.8871C74.0409 12.0182 74.0206 12.1503 73.9694 12.2717Z" fill="white"/>
<path id="Vector_2" d="M97.1098 17.0403H88.7575V39.1858C88.7575 39.3975 88.6734 39.6004 88.5238 39.7501C88.3741 39.8998 88.1711 39.9839 87.9595 39.9839H82.4707C82.2591 39.9839 82.0561 39.8998 81.9064 39.7501C81.7568 39.6004 81.6727 39.3975 81.6727 39.1858L81.6534 17.0399H74.6649C74.5347 17.04 74.4066 17.0082 74.2915 16.9475C74.1765 16.8867 74.078 16.7987 74.0048 16.6912C73.9315 16.5837 73.8856 16.4599 73.8712 16.3306C73.8567 16.2013 73.8741 16.0704 73.9217 15.9493L75.6009 11.6774C75.6595 11.5281 75.7618 11.3999 75.8943 11.3095C76.0269 11.2192 76.1836 11.1709 76.3441 11.1709H97.1098C97.3215 11.1709 97.5245 11.255 97.6741 11.4046C97.8238 11.5543 97.9079 11.7573 97.9079 11.969V16.2409C97.9081 16.3458 97.8876 16.4497 97.8475 16.5467C97.8075 16.6437 97.7488 16.7318 97.6746 16.8061C97.6005 16.8803 97.5125 16.9393 97.4156 16.9795C97.3186 17.0196 97.2148 17.0403 97.1098 17.0403Z" fill="white"/>
<path id="Vector_3" d="M105.658 40.0176H100.071C99.8598 40.0176 99.6568 39.9336 99.5072 39.7839C99.3575 39.6342 99.2734 39.4312 99.2734 39.2196V11.9624C99.2734 11.7507 99.3575 11.5477 99.5072 11.3981C99.6568 11.2484 99.8598 11.1643 100.071 11.1643H105.658C105.87 11.1643 106.072 11.2484 106.222 11.3981C106.372 11.5477 106.456 11.7507 106.456 11.9624V39.2191C106.456 39.324 106.435 39.4278 106.395 39.5247C106.355 39.6215 106.296 39.7096 106.222 39.7837C106.148 39.8579 106.06 39.9167 105.963 39.9568C105.867 39.997 105.763 40.0176 105.658 40.0176Z" fill="white"/>
<path id="Vector_4" d="M23.0901 21.0489L22.5676 20.1438L18.2802 12.7158C18.2103 12.5941 18.1095 12.4929 17.988 12.4225C17.8665 12.3521 17.7286 12.315 17.5882 12.3149H6.61264C6.47246 12.3148 6.33471 12.3516 6.21328 12.4217C6.09185 12.4917 5.991 12.5925 5.9209 12.7139C5.8508 12.8353 5.81392 12.9731 5.81396 13.1132C5.81401 13.2534 5.85098 13.3911 5.92116 13.5125L16.155 31.2522L16.6775 32.1578L20.9672 39.5895C21.0373 39.7111 21.1381 39.812 21.2596 39.8821C21.3811 39.9523 21.5189 39.9891 21.6592 39.989H24.4834C24.6236 39.989 24.7613 39.9521 24.8827 39.882C25.0041 39.8119 25.1048 39.711 25.1749 39.5895L29.2496 32.5254C29.3197 32.4041 29.3565 32.2664 29.3565 32.1263C29.3565 31.9863 29.3197 31.8486 29.2496 31.7273L23.0901 21.0489Z" fill="white"/>
<path id="Vector_5" d="M11.9601 0.00231953H2.33652C2.19625 0.00222219 2.05843 0.0390991 1.93695 0.109235C1.81547 0.179371 1.71462 0.280288 1.64456 0.401815L0.228256 2.85089C0.158212 2.97221 0.121338 3.10983 0.121338 3.24992C0.121338 3.39001 0.158212 3.52763 0.228256 3.64895L4.33588 10.7657C4.40589 10.8871 4.50666 10.988 4.62806 11.0582C4.74945 11.1283 4.88717 11.1652 5.02736 11.1652H17.384H26.9987C27.1389 11.1653 27.2768 11.1284 27.3982 11.0583C27.5197 10.9881 27.6206 10.8872 27.6906 10.7657L33.2075 1.20081C33.2776 1.07943 33.3145 0.94173 33.3144 0.801573C33.3144 0.661416 33.2774 0.52374 33.2073 0.402397C33.1372 0.281053 33.0363 0.180321 32.9149 0.110336C32.7934 0.0403519 32.6557 0.00358291 32.5156 0.0037278L11.9601 0.00231953Z" fill="white"/>
<path id="Vector_6" d="M43.8027 3.6993e-06H35.6076C35.4674 3.63754e-05 35.3296 0.0370235 35.2082 0.10724C35.0868 0.177456 34.9861 0.278422 34.9161 0.399968L23.9504 19.4316C23.8804 19.5529 23.8435 19.6906 23.8435 19.8306C23.8435 19.9707 23.8804 20.1084 23.9504 20.2297L29.4546 29.7697C29.5246 29.8913 29.6254 29.9923 29.7468 30.0625C29.8683 30.1327 30.0061 30.1697 30.1464 30.1697C30.2866 30.1697 30.4245 30.1327 30.5459 30.0625C30.6673 29.9923 30.7681 29.8913 30.8381 29.7697L41.0658 12.0388L41.5714 11.1624L45.9067 3.64663C45.9767 3.52531 46.0136 3.38769 46.0136 3.2476C46.0136 3.10752 45.9767 2.9699 45.9067 2.84858L44.4965 0.399498C44.4263 0.277694 44.3251 0.1766 44.2033 0.106448C44.0815 0.0362954 43.9433 -0.00042431 43.8027 3.6993e-06Z" fill="white"/>
</g>
</svg>
