<svg width="16" height="16" viewBox="0 0 16 16" fill="none" xmlns="http://www.w3.org/2000/svg">
<g id="tiktok-svgrepo-com 1">
<path id="Vector" d="M13.0594 4.45737C12.3936 4.31496 11.7907 3.96361 11.3386 3.45454C10.8865 2.94548 10.6088 2.30531 10.5461 1.62737V1.33337H8.24939V10.448C8.24797 10.8516 8.12015 11.2445 7.88389 11.5716C7.64764 11.8987 7.31483 12.1436 6.93222 12.2718C6.54961 12.4001 6.13645 12.4052 5.75078 12.2865C5.36512 12.1678 5.02634 11.9312 4.78205 11.61C4.53398 11.2835 4.39636 10.8864 4.38917 10.4764C4.38197 10.0664 4.50557 9.66469 4.74203 9.32964C4.9785 8.99459 5.31554 8.74357 5.70429 8.61299C6.09303 8.4824 6.51327 8.47903 6.90406 8.60337V6.27004C6.03262 6.14957 5.14533 6.3045 4.36629 6.71315C3.58724 7.1218 2.95541 7.76374 2.55917 8.54917C2.16293 9.33459 2.0221 10.2242 2.15638 11.0936C2.29065 11.9631 2.69332 12.7688 3.30805 13.398C3.89429 13.9979 4.64598 14.4094 5.46716 14.5801C6.28834 14.7508 7.14176 14.673 7.91849 14.3565C8.69522 14.04 9.36001 13.4992 9.82802 12.8032C10.296 12.1071 10.546 11.2874 10.5461 10.4487V5.79137C11.4742 6.45493 12.5871 6.81073 13.7281 6.80871V4.52671C13.5034 4.52698 13.2792 4.50375 13.0594 4.45737Z" fill="white"/>
</g>
</svg>
