<svg width="151" height="24" viewBox="0 0 151 24" fill="none" xmlns="http://www.w3.org/2000/svg">
<g id="vti-group-ngang 1" clip-path="url(#clip0_376_1730)">
<path id="Vector" d="M44.3113 7.34852L37.4299 23.6391C37.3934 23.7259 37.3319 23.8 37.253 23.8521C37.1742 23.9042 37.0817 23.9318 36.987 23.9317H33.5289C33.4351 23.9323 33.3432 23.9056 33.2644 23.8549C33.1857 23.8041 33.1237 23.7315 33.0861 23.646L25.9143 7.35481C25.8823 7.28219 25.8691 7.20279 25.8757 7.12378C25.8823 7.04478 25.9087 6.96867 25.9523 6.90234C25.996 6.836 26.0555 6.78153 26.1257 6.74386C26.1958 6.70618 26.2743 6.68649 26.354 6.68655H29.9797C30.0749 6.68685 30.1679 6.71531 30.2467 6.76832C30.3256 6.82132 30.3868 6.89646 30.4226 6.98419L35.1492 18.5529L40.0162 6.97978C40.0526 6.89283 40.1141 6.81857 40.1929 6.76638C40.2718 6.71419 40.3644 6.68641 40.4591 6.68655H43.864C43.9436 6.68568 44.0221 6.7045 44.0925 6.74131C44.1629 6.77813 44.223 6.83178 44.2673 6.89744C44.3117 6.9631 44.3389 7.03871 44.3466 7.11745C44.3543 7.1962 44.3422 7.2756 44.3113 7.34852Z" fill="#0050AE"/>
<path id="Vector_2" d="M58.2165 10.1981H53.1969V23.4343C53.1969 23.4969 53.1846 23.559 53.1604 23.6168C53.1364 23.6747 53.101 23.7273 53.0565 23.7716C53.012 23.8159 52.9591 23.851 52.9009 23.875C52.8427 23.8989 52.7804 23.9113 52.7174 23.9113H49.4194C49.3564 23.9114 49.2941 23.8991 49.2359 23.8752C49.1777 23.8513 49.1248 23.8162 49.0803 23.772C49.0358 23.7277 49.0004 23.6752 48.9763 23.6174C48.9522 23.5595 48.9398 23.4975 48.9398 23.4349L48.9284 10.1981H44.7288C44.6507 10.1982 44.5738 10.1792 44.5047 10.1429C44.4356 10.1067 44.3764 10.0541 44.3324 9.98993C44.2884 9.92573 44.2608 9.85181 44.252 9.77459C44.2433 9.69737 44.2536 9.61919 44.2822 9.54685L45.2944 6.99212C45.3297 6.90291 45.3912 6.82633 45.4709 6.77235C45.5505 6.71837 45.6447 6.68949 45.7411 6.68945H58.2196C58.3468 6.68945 58.4688 6.7397 58.5587 6.82915C58.6486 6.9186 58.6992 7.03992 58.6992 7.16642V9.72116C58.6992 9.78406 58.6867 9.84634 58.6624 9.90441C58.6381 9.96249 58.6025 10.0152 58.5576 10.0595C58.5127 10.1039 58.4595 10.1389 58.4009 10.1627C58.3424 10.1865 58.2797 10.1985 58.2165 10.1981Z" fill="#0050AE"/>
<path id="Vector_3" d="M63.353 23.9316H59.9962C59.869 23.9316 59.747 23.8814 59.6571 23.7919C59.5671 23.7025 59.5166 23.5812 59.5166 23.4547V7.16349C59.5166 7.03699 59.5671 6.91567 59.6571 6.82622C59.747 6.73677 59.869 6.68652 59.9962 6.68652H63.353C63.4802 6.68652 63.6022 6.73677 63.6921 6.82622C63.7821 6.91567 63.8326 7.03699 63.8326 7.16349V23.4547C63.8326 23.5812 63.7821 23.7025 63.6921 23.7919C63.6022 23.8814 63.4802 23.9316 63.353 23.9316Z" fill="#0050AE"/>
<path id="Vector_4" d="M13.7354 12.5946L13.4191 12.0534L10.8436 7.61411C10.8015 7.54144 10.741 7.48107 10.668 7.43909C10.595 7.39711 10.5122 7.375 10.4279 7.375H3.83625C3.75202 7.37507 3.6693 7.39717 3.59637 7.43908C3.52345 7.481 3.46289 7.54126 3.42077 7.61381C3.37866 7.68636 3.35648 7.76865 3.35645 7.85242C3.35641 7.93619 3.37854 8.0185 3.4206 8.09108L9.57001 18.6939L9.88634 19.235L12.4632 23.6762C12.5052 23.7489 12.5657 23.8093 12.6387 23.8513C12.7117 23.8932 12.7945 23.9153 12.8788 23.9153H14.5756C14.6598 23.9155 14.7426 23.8935 14.8156 23.8516C14.8886 23.8097 14.9492 23.7495 14.9912 23.6769L17.4396 19.4546C17.4819 19.3822 17.5042 19.2999 17.5042 19.2161C17.5042 19.1324 17.4819 19.0501 17.4396 18.9777L13.7354 12.5946Z" fill="#006BC6"/>
<path id="Vector_5" d="M7.04803 0.0152783H1.26365C1.17949 0.0151999 1.0968 0.0372074 1.02393 0.0790804C0.951063 0.120953 0.890595 0.181209 0.848628 0.253762L-0.000399739 1.71739C-0.0423659 1.78994 -0.0644531 1.87217 -0.0644531 1.95587C-0.0644531 2.03957 -0.0423659 2.1218 -0.000399739 2.19435L2.46696 6.44679C2.50905 6.51943 2.56962 6.57976 2.64258 6.62174C2.71554 6.66371 2.79833 6.68584 2.88262 6.68591H16.0862C16.1704 6.68592 16.2531 6.66382 16.326 6.62183C16.3989 6.57984 16.4593 6.51946 16.5012 6.44679L19.8188 0.7301C19.8607 0.657535 19.8827 0.575294 19.8826 0.491614C19.8825 0.407933 19.8603 0.325751 19.8182 0.253296C19.7761 0.180842 19.7156 0.120658 19.6428 0.0787751C19.5699 0.0368917 19.4873 0.0147781 19.4032 0.0146484L7.04803 0.0152783Z" fill="#0050AE"/>
<path id="Vector_6" d="M26.1836 0.0136724H21.259C21.1748 0.0135473 21.092 0.0355304 21.019 0.0774025C20.946 0.119275 20.8855 0.179554 20.8434 0.252156L14.2517 11.6277C14.2097 11.7002 14.1875 11.7824 14.1875 11.8661C14.1875 11.9499 14.2097 12.0321 14.2517 12.1046L17.5593 17.8062C17.6013 17.8789 17.6619 17.9392 17.7349 17.9812C17.8078 18.0232 17.8906 18.0453 17.9749 18.0453C18.0592 18.0453 18.142 18.0232 18.215 17.9812C18.288 17.9392 18.3485 17.8789 18.3906 17.8062L24.5368 7.20909L24.8405 6.68493L27.4452 2.19275C27.4874 2.1203 27.5097 2.03803 27.5097 1.95426C27.5097 1.8705 27.4874 1.78823 27.4452 1.71578L26.5961 0.252156C26.5543 0.180057 26.4942 0.120109 26.4218 0.0782705C26.3495 0.0364322 26.2673 0.0141617 26.1836 0.0136724Z" fill="#0391E8"/>
<path id="Vector_7" d="M72.2576 23.1288C71.3509 22.6123 70.6158 21.8435 70.1426 20.917C69.6432 19.9639 69.3936 18.8621 69.3936 17.6116V12.9973C69.3936 11.7468 69.6466 10.645 70.1527 9.69191C70.6375 8.76189 71.3852 7.99326 72.3038 7.48074C73.2317 6.96015 74.2992 6.69964 75.5063 6.69922H78.1634C79.3229 6.69922 80.3459 6.93561 81.2325 7.40838C82.0983 7.86013 82.8132 8.55279 83.2899 9.40183C83.7466 10.2119 83.9877 11.14 84.013 12.1862C84.0136 12.2101 84.0094 12.2339 84.0006 12.2562C83.9919 12.2784 83.9787 12.2987 83.962 12.3159C83.9453 12.3331 83.9253 12.3467 83.9032 12.3561C83.8811 12.3655 83.8573 12.3704 83.8333 12.3706H81.4115C81.365 12.3705 81.3204 12.3524 81.287 12.3203C81.2537 12.2881 81.2341 12.2444 81.2325 12.1982C81.2008 11.3173 80.9199 10.6014 80.3898 10.0506C79.8254 9.46622 79.0844 9.17383 78.1666 9.17341H75.5094C74.5263 9.17341 73.7327 9.52998 73.1288 10.2431C72.5248 10.9563 72.2226 11.9058 72.2222 13.0917V17.5191C72.2222 18.7054 72.5174 19.655 73.1079 20.3677C73.6984 21.0804 74.4757 21.437 75.4399 21.4374H78.1951C79.1289 21.4374 79.8942 21.1089 80.491 20.452C81.0878 19.7951 81.3858 18.9538 81.3849 17.9281V17.1101H76.876C76.8283 17.1101 76.7826 17.0913 76.7489 17.0577C76.7152 17.0242 76.6963 16.9788 76.6963 16.9314V14.8341C76.6963 14.8107 76.701 14.7875 76.71 14.7658C76.719 14.7442 76.7323 14.7245 76.749 14.708C76.7657 14.6914 76.7855 14.6783 76.8073 14.6694C76.8291 14.6605 76.8524 14.6559 76.876 14.656H84.1604V17.925C84.1604 19.0945 83.9107 20.1321 83.4113 21.0378C82.9273 21.9275 82.198 22.6613 81.309 23.1527C80.4064 23.6561 79.3672 23.9078 78.1913 23.9078H75.4361C74.2273 23.9091 73.1678 23.6494 72.2576 23.1288Z" fill="#0391E8"/>
<path id="Vector_8" d="M86.8662 7.06968C86.8664 7.02239 86.8854 6.9771 86.9191 6.94372C86.9527 6.91034 86.9983 6.8916 87.0459 6.8916H95.5905C96.9761 6.8916 98.0959 7.2681 98.9499 8.0211C99.804 8.77409 100.231 9.76767 100.23 11.0018V12.7083C100.243 13.5081 99.9746 14.2873 99.4706 14.9107C98.9645 15.5437 98.2597 16.0123 97.3563 16.3164V16.3649C97.8551 16.6538 98.2808 17.0524 98.6007 17.5303C98.9149 18.0034 99.1849 18.6165 99.4105 19.3695L100.793 23.6818C100.802 23.7085 100.804 23.7369 100.799 23.7647C100.795 23.7924 100.784 23.8188 100.767 23.8415C100.75 23.8642 100.729 23.8826 100.703 23.8953C100.678 23.9081 100.65 23.9146 100.622 23.9146H98.0585C98.0203 23.9144 97.9831 23.9021 97.9524 23.8795C97.9217 23.8568 97.899 23.8251 97.8877 23.7887L96.5345 19.5602C96.3236 18.8391 96.0013 18.2862 95.5678 17.9015C95.152 17.5244 94.6077 17.3183 94.045 17.3251H89.6954V23.7334C89.6954 23.7807 89.6765 23.8262 89.6428 23.8597C89.6091 23.8932 89.5634 23.9121 89.5158 23.9121H87.0484C87.0008 23.9121 86.9551 23.8932 86.9214 23.8597C86.8877 23.8262 86.8687 23.7807 86.8687 23.7334L86.8662 7.06968ZM94.9642 14.8956C95.7053 14.8956 96.2974 14.6953 96.7407 14.2947C97.184 13.8941 97.4054 13.3732 97.405 12.7323V11.0742C97.405 10.5616 97.2363 10.1448 96.8989 9.82388C96.5615 9.50297 96.1104 9.34272 95.5456 9.34314H89.6973V14.8956H94.9642Z" fill="#0391E8"/>
<path id="Vector_9" d="M137.399 6.86948C137.399 6.82225 137.418 6.77696 137.452 6.74356C137.485 6.71017 137.531 6.69141 137.578 6.69141H146.076C147.493 6.69141 148.637 7.08804 149.507 7.88131C150.378 8.67458 150.813 9.72017 150.812 11.0181V13.3255C150.812 14.6876 150.357 15.7813 149.447 16.6064C148.537 17.4316 147.341 17.8444 145.858 17.8448H140.227V23.7389C140.227 23.7862 140.209 23.8316 140.175 23.8651C140.141 23.8986 140.096 23.9175 140.048 23.9176H137.581C137.533 23.9175 137.488 23.8986 137.454 23.8651C137.421 23.8316 137.402 23.7862 137.402 23.7389L137.399 6.86948ZM145.81 15.3926C146.47 15.3926 146.997 15.1923 147.392 14.7917C147.786 14.3911 147.983 13.8703 147.984 13.2293V11.0898C147.984 10.4979 147.806 10.0254 147.452 9.67214C147.097 9.31892 146.622 9.14253 146.026 9.14295H140.225V15.3926H145.81Z" fill="#0391E8"/>
<path id="Vector_10" d="M122.851 23.1766C121.99 22.6979 121.289 21.9794 120.833 21.1096C120.357 20.2206 120.12 19.191 120.12 18.0206V6.87793C120.12 6.83064 120.139 6.78528 120.173 6.75178C120.206 6.71829 120.252 6.69939 120.299 6.69922H122.767C122.814 6.69939 122.86 6.71829 122.893 6.75178C122.927 6.78528 122.946 6.83064 122.946 6.87793V17.9728C122.946 19.0148 123.211 19.8521 123.743 20.4847C124.275 21.1173 124.976 21.4338 125.846 21.4343H128.432C129.318 21.4343 130.03 21.1177 130.57 20.4847C131.11 19.8517 131.38 19.0144 131.38 17.9728V6.87793C131.38 6.83053 131.399 6.78507 131.433 6.75156C131.466 6.71805 131.512 6.69922 131.56 6.69922H134.027C134.051 6.69922 134.074 6.70384 134.096 6.71282C134.118 6.7218 134.138 6.73497 134.154 6.75156C134.171 6.76815 134.184 6.78786 134.193 6.80954C134.202 6.83122 134.207 6.85446 134.207 6.87793V18.0225C134.207 19.1929 133.965 20.2225 133.482 21.1115C133.019 21.9803 132.314 22.6979 131.452 23.1785C130.581 23.6681 129.574 23.9124 128.431 23.9116H125.844C124.719 23.9103 123.721 23.6653 122.851 23.1766Z" fill="#0391E8"/>
<path id="Vector_11" d="M105.395 23.1356C104.469 22.6243 103.713 21.8557 103.22 20.9239C102.704 19.9703 102.446 18.8687 102.446 17.6191V13.0035C102.446 11.7539 102.704 10.6523 103.22 9.69875C103.714 8.76701 104.469 7.99844 105.395 7.48695C106.329 6.96677 107.408 6.70647 108.633 6.70605H111.195C112.418 6.70605 113.502 6.96635 114.446 7.48695C115.376 7.9963 116.136 8.76512 116.633 9.69875C117.148 10.6518 117.406 11.7534 117.406 13.0035V17.6191C117.406 18.8687 117.148 19.9703 116.633 20.9239C116.137 21.8576 115.376 22.6265 114.446 23.1356C113.503 23.6558 112.42 23.9161 111.195 23.9165H108.633C107.409 23.9165 106.329 23.6562 105.395 23.1356ZM111.195 21.4405C112.194 21.4405 113.007 21.0799 113.636 20.3588C114.265 19.6377 114.579 18.6923 114.579 17.5228V13.0998C114.579 11.9303 114.269 10.9847 113.648 10.2632C113.028 9.54164 112.21 9.18109 111.195 9.18151H108.658C107.642 9.18151 106.824 9.54206 106.204 10.2632C105.584 10.9843 105.274 11.9298 105.274 13.0998V17.5228C105.274 18.6923 105.584 19.6377 106.204 20.3588C106.824 21.0799 107.642 21.4405 108.658 21.4405H111.195Z" fill="#0391E8"/>
</g>
<defs>
<clipPath id="clip0_376_1730">
<rect width="150.4" height="24" fill="white" transform="translate(0.299805)"/>
</clipPath>
</defs>
</svg>
